<?xml version="1.0" encoding="utf-8"?>
<!-- Svg Vector Icons : http://www.onlinewebfonts.com/icon -->
<!DOCTYPE svg PUBLIC "-//W3C//DTD SVG 1.1//EN" "http://www.w3.org/Graphics/SVG/1.1/DTD/svg11.dtd">
<svg version="1.1" xmlns="http://www.w3.org/2000/svg" xmlns:xlink="http://www.w3.org/1999/xlink" x="0px" y="0px" viewBox="0 0 1000 1000" enable-background="new 0 0 1000 1000" xml:space="preserve">
<metadata> Svg Vector Icons : http://www.onlinewebfonts.com/icon </metadata>
<g><g transform="translate(0.000000,512.000000) scale(0.100000,-0.100000)"><path d="M4582.3,4998.2c-1123.9-142.4-2090.1-608.2-2871.4-1381.8C904.5,2819.6,425.3,1826.5,290.6,667.9c-38.5-327.2-26.9-966.1,21.2-1279.8c155.9-998.9,581.2-1895.7,1235.6-2602c781.4-839.1,1745.6-1347.2,2911.9-1530c313.7-48.1,1110.5-48.1,1424.2,0c844.9,132.8,1568.5,429.2,2222.9,912.3c209.8,154,664,560,664,590.8c0,11.6-750.6,771.7-1668.6,1689.8L5431.1,119.5L7101.6,1790c918,918,1668.6,1678.2,1668.6,1689.8c0,21.2-409.9,398.4-567.7,523.5c-640.9,500.4-1443.4,841-2299.9,975.8C5621.6,5023.2,4869.1,5034.8,4582.3,4998.2z M5787.1,4649.9c521.5-77,989.2-223.3,1431.9-448.4c338.7-175.1,708.2-425.3,945-642.8l96.2-88.5L6585.8,1795.8L4911.4,119.5l1674.4-1676.3l1674.4-1674.3l-96.2-88.5c-265.6-244.4-775.6-575.4-1129.7-731.3c-627.4-275.2-1189.4-394.5-1863-394.5c-404.2,0-631.2,23.1-981.5,100.1c-1718.6,383-3102.4,1766.7-3483.5,3483.5c-78.9,352.2-102,577.4-102,981.5c0,404.2,23.1,625.5,102,981.5c188.6,844.9,617.8,1616.6,1241.3,2242.1c773.7,773.7,1768.7,1239.4,2854.1,1337.6C5044.2,4701.8,5531.2,4686.4,5787.1,4649.9z"/><path d="M4459.2,3381.6c-205.9-57.7-392.6-213.6-494.6-413.8c-48.1-94.3-53.9-127-53.9-288.7c0-157.8,7.7-198.2,52-294.5c67.4-140.5,223.2-298.3,371.4-371.5c102-50,136.6-55.8,288.7-55.8s186.7,5.8,288.7,55.8c148.2,73.1,304.1,230.9,371.4,371.5c44.3,96.2,52,136.6,52,294.5c0,163.6-5.8,194.4-55.8,294.5C5121.2,3283.4,4757.5,3464.3,4459.2,3381.6z M4736.3,3023.6c92.4-23.1,169.4-84.7,215.6-175.1c44.3-86.6,30.8-321.4-23.1-394.5c-132.8-182.8-477.3-184.7-606.2-3.8c-67.4,96.2-77,311.8-17.3,417.6C4386,3010.2,4551.5,3069.8,4736.3,3023.6z"/><path d="M7353.7,286.9c-5.8-15.4-7.7-100.1-3.9-188.6l5.8-161.7l275.2-5.8l273.3-5.8v194.4v192.5h-269.4C7426.8,311.9,7361.4,306.1,7353.7,286.9z"/><path d="M9366.8,119.5V-73h182.8h182.8v192.4v192.5h-182.8h-182.8V119.5z"/></g></g>
</svg>